<svg width="29" height="37" viewBox="0 0 29 37" fill="none" xmlns="http://www.w3.org/2000/svg">
<path d="M28.2792 27.8915L25.8464 25.4587V16.0296C25.8464 10.2401 22.7537 5.39348 17.3602 4.11112V2.82875C17.3602 1.26351 16.0967 0 14.5314 0C12.9662 0 11.7027 1.26351 11.7027 2.82875V4.11112C6.29035 5.39348 3.21644 10.2212 3.21644 16.0296V25.4587L0.783716 27.8915C-0.404359 29.0795 0.425407 31.1162 2.1038 31.1162H26.9402C28.6375 31.1162 29.4672 29.0795 28.2792 27.8915ZM22.0748 27.3446H6.98811V16.0296C6.98811 11.3527 9.83572 7.54333 14.5314 7.54333C19.2272 7.54333 22.0748 11.3527 22.0748 16.0296V27.3446ZM14.5314 36.7737C16.6059 36.7737 18.3031 35.0765 18.3031 33.0021H10.7598C10.7598 35.0765 12.4382 36.7737 14.5314 36.7737Z" fill="black" fill-opacity="0.5"/>
</svg>
