<svg width="29" height="37" viewBox="0 0 29 37" fill="none" xmlns="http://www.w3.org/2000/svg">
<path d="M28.0546 27.8915L25.6218 25.4587V16.0296C25.6218 10.2401 22.5291 5.39348 17.1356 4.11112V2.82875C17.1356 1.26351 15.8721 0 14.3068 0C12.7416 0 11.4781 1.26351 11.4781 2.82875V4.11112C6.06574 5.39348 2.99183 10.2212 2.99183 16.0296V25.4587L0.559107 27.8915C-0.628968 29.0795 0.200798 31.1162 1.87919 31.1162H26.7156C28.4129 31.1162 29.2426 29.0795 28.0546 27.8915ZM21.8502 27.3446H6.7635V16.0296C6.7635 11.3527 9.61111 7.54333 14.3068 7.54333C19.0026 7.54333 21.8502 11.3527 21.8502 16.0296V27.3446ZM14.3068 36.7737C16.3812 36.7737 18.0785 35.0765 18.0785 33.0021H10.5352C10.5352 35.0765 12.2136 36.7737 14.3068 36.7737Z" fill="black"/>
</svg>
