<svg width="24" height="33" viewBox="0 0 24 33" fill="none" xmlns="http://www.w3.org/2000/svg">
<path d="M21.8186 0H2.41663C1.98782 0 1.57658 0.170344 1.27336 0.473558C0.970149 0.776772 0.799805 1.18802 0.799805 1.61683V30.7197C0.799784 31.0288 0.888356 31.3314 1.05503 31.5917C1.2217 31.852 1.45949 32.0591 1.74022 32.1884C2.02095 32.3177 2.33286 32.3638 2.639 32.3213C2.94515 32.2788 3.23269 32.1494 3.46757 31.9485L12.1176 24.689L20.6706 31.8677C20.8217 32.0175 21.0009 32.1361 21.1979 32.2166C21.3949 32.297 21.6058 32.3378 21.8186 32.3366C22.0307 32.342 22.2411 32.2977 22.433 32.2072C22.7282 32.0859 22.981 31.8799 23.1594 31.6152C23.3378 31.3505 23.4338 31.0389 23.4354 30.7197V1.61683C23.4354 1.18802 23.2651 0.776772 22.9618 0.473558C22.6586 0.170344 22.2474 0 21.8186 0ZM20.2017 27.2597L13.1524 21.3421C12.8619 21.1002 12.4957 20.9676 12.1176 20.9676C11.7395 20.9676 11.3734 21.1002 11.0828 21.3421L4.03346 27.2597V3.23366H20.2017V27.2597Z" fill="black" fill-opacity="0.5"/>
</svg>
