<svg width="30" height="28" viewBox="0 0 30 28" fill="none" xmlns="http://www.w3.org/2000/svg">
<path d="M25.3031 4.79148H22.4584C22.4584 2.2462 20.512 0.299805 17.9667 0.299805H11.9778C9.43252 0.299805 7.48613 2.2462 7.48613 4.79148H4.6414C2.09612 4.79148 0 6.8876 0 9.43288V10.9301C0 12.2776 0.59889 13.4754 1.49723 14.3737V21.261C1.49723 24.5549 4.19223 27.2499 7.48613 27.2499H22.4584C25.7523 27.2499 28.4473 24.5549 28.4473 21.261V14.5235C29.3456 13.6251 29.9445 12.4273 29.9445 11.0798V9.58261C29.9445 6.8876 27.8484 4.79148 25.3031 4.79148ZM11.9778 3.29426H17.9667C18.865 3.29426 19.4639 3.89315 19.4639 4.79148H10.4806C10.4806 3.89315 11.0795 3.29426 11.9778 3.29426ZM2.99445 9.43288C2.99445 8.53455 3.74306 7.78593 4.6414 7.78593H25.3031C26.2015 7.78593 26.9501 8.53455 26.9501 9.43288V10.9301C26.9501 11.529 26.6506 12.1279 26.0517 12.5771C25.902 12.7268 25.6026 12.8765 25.4528 12.8765L16.4695 14.8229C16.3198 14.224 15.7209 13.6251 14.9723 13.6251C14.2236 13.6251 13.7745 14.0743 13.475 14.8229L4.49168 12.8765C4.19223 12.8765 4.04251 12.7268 3.89279 12.5771H3.74306C3.2939 12.2776 2.99445 11.6787 2.99445 10.9301V9.43288ZM25.4528 21.261C25.4528 22.9079 24.1053 24.2554 22.4584 24.2554H7.48613C5.83918 24.2554 4.49168 22.9079 4.49168 21.261V16.0207L13.475 17.9671V18.2665C13.475 19.1649 14.0739 19.7637 14.9723 19.7637C15.8706 19.7637 16.4695 19.1649 16.4695 18.2665V17.9671L25.4528 16.0207V21.261Z" fill="black" fill-opacity="0.5"/>
</svg>
