<svg width="38" height="43" viewBox="0 0 38 43" fill="none" xmlns="http://www.w3.org/2000/svg">
<path d="M19 10.75C12.9215 10.75 8.18633 14.8484 2.375 21.5C7.37734 27.1857 11.5781 32.25 19 32.25C26.4145 32.25 31.8695 25.8336 35.625 21.6176C31.7805 16.6793 26.3328 10.75 19 10.75ZM19 29.1678C15.3336 29.1678 12.35 25.7244 12.35 21.5C12.35 17.2672 15.3336 13.8322 19 13.8322C22.6664 13.8322 25.65 17.2756 25.65 21.5C25.65 25.7328 22.6664 29.1678 19 29.1678Z" fill="#0CCE68"/>
<path d="M19.0003 18.8125C19.0003 18.1491 19.2155 17.5444 19.5644 17.0741C19.3788 17.0405 19.1933 17.0237 19.0003 17.0237C16.8628 17.0237 15.1187 19.0309 15.1187 21.5C15.1187 23.9692 16.8628 25.9764 19.0003 25.9764C21.1378 25.9764 22.8819 23.9692 22.8819 21.5C22.8819 21.3069 22.8671 21.1137 22.8522 20.9206C22.444 21.2817 21.9394 21.5 21.3827 21.5C20.0616 21.5 19.0003 20.2991 19.0003 18.8125Z" fill="#0CCE68"/>
</svg>
