<svg width="18" height="17" viewBox="0 0 18 17" fill="none" xmlns="http://www.w3.org/2000/svg">
<path d="M8.1 16.2V14.4H15.3V8.01C15.3 6.255 14.6888 4.76625 13.4663 3.54375C12.2438 2.32125 10.755 1.71 9 1.71C7.245 1.71 5.75625 2.32125 4.53375 3.54375C3.31125 4.76625 2.7 6.255 2.7 8.01V13.5H1.8C1.305 13.5 0.88125 13.3238 0.52875 12.9713C0.17625 12.6188 0 12.195 0 11.7V9.9C0 9.585 0.07875 9.28875 0.23625 9.01125C0.39375 8.73375 0.615 8.5125 0.9 8.3475L0.9675 7.155C1.0875 6.135 1.38375 5.19 1.85625 4.32C2.32875 3.45 2.92125 2.6925 3.63375 2.0475C4.34625 1.4025 5.16375 0.9 6.08625 0.54C7.00875 0.18 7.98 0 9 0C10.02 0 10.9875 0.18 11.9025 0.54C12.8175 0.9 13.635 1.39875 14.355 2.03625C15.075 2.67375 15.6675 3.4275 16.1325 4.2975C16.5975 5.1675 16.8975 6.1125 17.0325 7.1325L17.1 8.3025C17.385 8.4375 17.6063 8.64 17.7638 8.91C17.9213 9.18 18 9.465 18 9.765V11.835C18 12.135 17.9213 12.42 17.7638 12.69C17.6063 12.96 17.385 13.1625 17.1 13.2975V14.4C17.1 14.895 16.9237 15.3188 16.5713 15.6713C16.2188 16.0238 15.795 16.2 15.3 16.2H8.1ZM6.3 9.9C6.045 9.9 5.83125 9.81375 5.65875 9.64125C5.48625 9.46875 5.4 9.255 5.4 9C5.4 8.745 5.48625 8.53125 5.65875 8.35875C5.83125 8.18625 6.045 8.1 6.3 8.1C6.555 8.1 6.76875 8.18625 6.94125 8.35875C7.11375 8.53125 7.2 8.745 7.2 9C7.2 9.255 7.11375 9.46875 6.94125 9.64125C6.76875 9.81375 6.555 9.9 6.3 9.9ZM11.7 9.9C11.445 9.9 11.2313 9.81375 11.0588 9.64125C10.8863 9.46875 10.8 9.255 10.8 9C10.8 8.745 10.8863 8.53125 11.0588 8.35875C11.2313 8.18625 11.445 8.1 11.7 8.1C11.955 8.1 12.1688 8.18625 12.3413 8.35875C12.5138 8.53125 12.6 8.745 12.6 9C12.6 9.255 12.5138 9.46875 12.3413 9.64125C12.1688 9.81375 11.955 9.9 11.7 9.9ZM3.6225 8.505C3.5175 6.915 3.9975 5.55 5.0625 4.41C6.1275 3.27 7.455 2.7 9.045 2.7C10.38 2.7 11.5538 3.12375 12.5663 3.97125C13.5788 4.81875 14.19 5.9025 14.4 7.2225C13.035 7.2075 11.7788 6.84 10.6313 6.12C9.48375 5.4 8.6025 4.425 7.9875 3.195C7.7475 4.395 7.24125 5.46375 6.46875 6.40125C5.69625 7.33875 4.7475 8.04 3.6225 8.505Z" fill="#808080"/>
</svg>
