<svg width="39" height="39" viewBox="0 0 39 39" fill="none" xmlns="http://www.w3.org/2000/svg">
<path d="M34.077 31.4674L32.7407 27.4585C32.6645 27.2298 32.6893 26.984 32.7997 26.7697C33.8039 24.8185 34.2187 22.5149 33.7842 20.0867C33.118 16.3643 30.3923 13.2712 26.8569 12.085C27.7691 14.2882 28.0473 16.7378 27.5916 19.1677C26.6657 24.1065 22.711 28.0224 17.7509 28.9119C17.1088 29.0271 16.4601 29.0832 15.8164 29.0995C17.3228 30.7248 19.3335 31.8801 21.5764 32.2823C23.9897 32.7151 26.2827 32.3123 28.2279 31.323C28.4414 31.2145 28.6855 31.1903 28.9127 31.266L32.9369 32.6074C33.6415 32.8423 34.3119 32.172 34.077 31.4674Z" fill="black"/>
<path d="M13.4946 6.53121C9.31449 7.30793 5.96468 10.7041 5.21561 14.8892C4.78112 17.3175 5.19588 19.6211 6.20013 21.5723C6.3105 21.7865 6.33533 22.0324 6.25924 22.2611L4.9228 26.2699C4.68796 26.9746 5.35828 27.6449 6.06294 27.4101L10.0871 26.0687C10.3144 25.993 10.5586 26.0171 10.772 26.1257C12.7172 27.1149 15.01 27.5178 17.4234 27.085C21.5983 26.3363 24.9858 22.9947 25.7673 18.8258C27.1443 11.4818 20.8365 5.16697 13.4946 6.53121ZM16.1559 20.0545H10.9584C10.4458 20.0545 10.0303 19.639 10.0303 19.1263C10.0303 18.6137 10.4458 18.1982 10.9584 18.1982H16.1559C16.6687 18.1982 17.0841 18.6137 17.0841 19.1263C17.0841 19.639 16.6687 20.0545 16.1559 20.0545ZM19.8685 16.3419H10.9584C10.4457 16.3419 10.0302 15.9265 10.0302 15.4138C10.0302 14.9011 10.4457 14.4856 10.9584 14.4856H19.8684C20.3811 14.4856 20.7966 14.9011 20.7966 15.4138C20.7966 15.9265 20.3812 16.3419 19.8685 16.3419Z" fill="black"/>
<circle cx="15" cy="6" r="6" fill="#E51616"/>
</svg>
