<svg width="24" height="25" viewBox="0 0 24 25" fill="none" xmlns="http://www.w3.org/2000/svg">
<path d="M9.8125 0.69499C5.05386 1.5792 1.24048 5.44531 0.387741 10.2097C-0.10687 12.9739 0.365283 15.5964 1.50851 17.8175C1.63416 18.0615 1.66242 18.3414 1.5758 18.6017L0.0544158 23.1653C-0.212921 23.9675 0.550155 24.7306 1.35234 24.4632L5.93339 22.9362C6.19214 22.85 6.47014 22.8775 6.71303 23.0011C8.92742 24.1272 11.5376 24.5858 14.2849 24.0931C19.0376 23.2408 22.8939 19.4368 23.7835 14.691C25.3511 6.33065 18.1703 -0.858041 9.8125 0.69499ZM12.8421 16.0897H6.9253C6.34172 16.0897 5.8687 15.6168 5.8687 15.0331C5.8687 14.4495 6.34172 13.9765 6.9253 13.9765H12.8421C13.4257 13.9765 13.8987 14.4495 13.8987 15.0331C13.8987 15.6168 13.4257 16.0897 12.8421 16.0897ZM17.0684 11.8634H6.92521C6.34164 11.8634 5.86862 11.3904 5.86862 10.8068C5.86862 10.2232 6.34164 9.75018 6.92521 9.75018H17.0683C17.652 9.75018 18.1249 10.2232 18.1249 10.8068C18.125 11.3904 17.6521 11.8634 17.0684 11.8634Z" fill="#808080"/>
</svg>
