<svg width="40" height="40" viewBox="0 0 40 40" fill="none" xmlns="http://www.w3.org/2000/svg">
<path d="M20.1033 31.2069C19.6826 31.2069 19.2792 31.0398 18.9817 30.7423C18.6842 30.4448 18.5171 30.0414 18.5171 29.6207V10.5862C18.5171 10.1655 18.6842 9.76206 18.9817 9.46459C19.2792 9.16712 19.6826 9 20.1033 9C20.524 9 20.9274 9.16712 21.2249 9.46459C21.5224 9.76206 21.6895 10.1655 21.6895 10.5862V29.6207C21.6895 30.0414 21.5224 30.4448 21.2249 30.7423C20.9274 31.0398 20.524 31.2069 20.1033 31.2069Z" fill="black" fill-opacity="0.5"/>
<path d="M19.9999 39.9403C9.06623 39.9403 0.172363 31.0465 0.172363 20.1127C0.172363 9.17902 9.06623 0.285156 19.9999 0.285156C30.9337 0.285156 39.8275 9.17902 39.8275 20.1127C39.8275 31.0465 30.9337 39.9403 19.9999 39.9403ZM19.9999 3.45757C10.8158 3.45757 3.34478 10.9286 3.34478 20.1127C3.34478 29.2969 10.8158 36.7679 19.9999 36.7679C29.1841 36.7679 36.6551 29.2953 36.6551 20.1127C36.6551 10.9302 29.1841 3.45757 19.9999 3.45757Z" fill="black" fill-opacity="0.5"/>
<path d="M29.6207 21.6895H10.5862C10.1655 21.6895 9.76206 21.5224 9.46459 21.2249C9.16712 20.9274 9 20.524 9 20.1033C9 19.6826 9.16712 19.2792 9.46459 18.9817C9.76206 18.6842 10.1655 18.5171 10.5862 18.5171H29.6207C30.0414 18.5171 30.4448 18.6842 30.7423 18.9817C31.0398 19.2792 31.2069 19.6826 31.2069 20.1033C31.2069 20.524 31.0398 20.9274 30.7423 21.2249C30.4448 21.5224 30.0414 21.6895 29.6207 21.6895Z" fill="black" fill-opacity="0.5"/>
</svg>
