<svg width="34" height="35" viewBox="0 0 34 35" fill="none" xmlns="http://www.w3.org/2000/svg">
<path d="M29.2274 18.8985C29.2956 18.3534 29.3467 17.8084 29.3467 17.2293C29.3467 16.6501 29.2956 16.1051 29.2274 15.56L32.8214 12.7496C33.145 12.4941 33.2302 12.0342 33.0258 11.6595L29.6192 5.76607C29.4148 5.39134 28.9549 5.25508 28.5802 5.39134L24.339 7.09464C23.4533 6.41332 22.4994 5.85123 21.4604 5.42541L20.8131 0.911674C20.762 0.502883 20.4044 0.196289 19.9785 0.196289H13.1653C12.7395 0.196289 12.3818 0.502883 12.3307 0.911674L11.6835 5.42541C10.6445 5.85123 9.69062 6.43036 8.80491 7.09464L4.5637 5.39134C4.17194 5.23805 3.72908 5.39134 3.52469 5.76607L0.118092 11.6595C-0.103336 12.0342 -0.00113832 12.4941 0.322488 12.7496L3.91644 15.56C3.84831 16.1051 3.79721 16.6672 3.79721 17.2293C3.79721 17.7913 3.84831 18.3534 3.91644 18.8985L0.322488 21.7089C-0.00113832 21.9644 -0.0863034 22.4243 0.118092 22.799L3.52469 28.6924C3.72908 29.0672 4.18897 29.2034 4.5637 29.0672L8.80491 27.3639C9.69062 28.0452 10.6445 28.6073 11.6835 29.0331L12.3307 33.5468C12.3818 33.9556 12.7395 34.2622 13.1653 34.2622H19.9785C20.4044 34.2622 20.762 33.9556 20.8131 33.5468L21.4604 29.0331C22.4994 28.6073 23.4533 28.0282 24.339 27.3639L28.5802 29.0672C28.9719 29.2205 29.4148 29.0672 29.6192 28.6924L33.0258 22.799C33.2302 22.4243 33.145 21.9644 32.8214 21.7089L29.2274 18.8985ZM16.5719 23.1908C13.2846 23.1908 10.6104 20.5166 10.6104 17.2293C10.6104 13.9419 13.2846 11.2677 16.5719 11.2677C19.8593 11.2677 22.5335 13.9419 22.5335 17.2293C22.5335 20.5166 19.8593 23.1908 16.5719 23.1908Z" fill="black" fill-opacity="0.5"/>
</svg>
