<svg width="1416" height="733" viewBox="0 0 1416 733" fill="none" xmlns="http://www.w3.org/2000/svg">
<path d="M240.408 707.17C90.0604 723.975 1.49115 623.482 -24 571.135V52H1416V228.046C1416 308.067 1232.56 533.125 1023.64 513.62C814.709 494.115 891.682 826.201 673.258 707.17C454.834 588.139 428.343 686.165 240.408 707.17Z" fill="#88FF99"/>
<path d="M240.408 681.17C90.0604 697.975 1.49115 597.482 -24 545.135V26H1416V202.046C1416 282.067 1232.56 507.125 1023.64 487.62C814.709 468.115 891.682 800.201 673.258 681.17C454.834 562.139 428.343 660.165 240.408 681.17Z" fill="#0CCE68"/>
<path d="M240.408 655.17C90.0604 671.975 1.49115 571.482 -24 519.135V0H1416V176.046C1416 256.067 1232.56 481.125 1023.64 461.62C814.709 442.115 891.682 774.201 673.258 655.17C454.834 536.139 428.343 634.165 240.408 655.17Z" fill="#364187"/>
</svg>
