<svg width="249" height="30" viewBox="0 0 249 30" fill="none" xmlns="http://www.w3.org/2000/svg">
<path d="M0.786687 28.2135C0.536936 28.3313 0.429976 28.6293 0.547786 28.8791C0.665596 29.1288 0.963562 29.2358 1.21331 29.118L0.786687 28.2135ZM249 28.6657L245.686 23.9384L243.249 29.1724L249 28.6657ZM1.21331 29.118C2.08898 28.7049 2.96704 28.2961 3.84747 27.8916L3.42995 26.9829C2.54648 27.3888 1.66538 27.799 0.786687 28.2135L1.21331 29.118ZM9.15277 25.5182C10.9276 24.7456 12.7116 23.9901 14.5047 23.2521L14.1241 22.3274C12.3248 23.068 10.5346 23.826 8.75362 24.6013L9.15277 25.5182ZM19.9013 21.0942C21.7055 20.3938 23.5185 19.7108 25.34 19.0456L24.997 18.1063C23.1692 18.7738 21.3499 19.4591 19.5394 20.162L19.9013 21.0942ZM30.8193 17.1069C32.65 16.4798 34.489 15.8705 36.3361 15.2792L36.0312 14.3268C34.1777 14.9201 32.3323 15.5316 30.4952 16.1608L30.8193 17.1069ZM41.8892 13.5629C43.7435 13.0102 45.6055 12.4756 47.475 11.9592L47.2088 10.9953C45.3327 11.5135 43.4643 12.05 41.6036 12.6045L41.8892 13.5629ZM53.0931 10.4681C54.9678 9.99074 56.8498 9.5316 58.7388 9.09089L58.5116 8.11704C56.616 8.55928 54.7275 9.02001 52.8464 9.49903L53.0931 10.4681ZM64.4127 7.82731C66.3047 7.42589 68.2035 7.0429 70.109 6.67851L69.9212 5.69631C68.0091 6.06195 66.1037 6.44628 64.2051 6.84908L64.4127 7.82731ZM75.8288 5.64416C77.7353 5.31913 79.6481 5.01268 81.5671 4.725L81.4188 3.73605C79.4933 4.02473 77.5738 4.33223 75.6608 4.65838L75.8288 5.64416ZM87.3234 3.9209C89.2413 3.67252 91.1651 3.44286 93.0945 3.23208L92.9859 2.238C91.0499 2.44949 89.1195 2.67995 87.195 2.92918L87.3234 3.9209ZM98.8778 2.65858C100.804 2.48691 102.736 2.33404 104.673 2.20016L104.604 1.20254C102.66 1.33688 100.722 1.49027 98.7891 1.66253L98.8778 2.65858ZM110.474 1.85693C112.405 1.76182 114.341 1.68557 116.282 1.62837L116.253 0.628799C114.305 0.6862 112.362 0.762705 110.424 0.858135L110.474 1.85693ZM122.093 1.51431C123.061 1.50482 124.03 1.50006 125 1.50006V0.500061C124.026 0.500061 123.054 0.504834 122.083 0.514357L122.093 1.51431ZM125 1.50006C125.97 1.50006 126.939 1.50482 127.908 1.51431L127.917 0.514358C126.946 0.504834 125.974 0.500061 125 0.500061V1.50006ZM133.718 1.62837C135.659 1.68557 137.595 1.76182 139.526 1.85693L139.576 0.858137C137.638 0.762706 135.695 0.686201 133.747 0.6288L133.718 1.62837ZM145.327 2.20017C147.264 2.33405 149.196 2.48691 151.122 2.65858L151.211 1.66253C149.278 1.49027 147.34 1.33688 145.396 1.20255L145.327 2.20017ZM156.906 3.23208C158.835 3.44286 160.759 3.67253 162.677 3.9209L162.805 2.92918C160.881 2.67995 158.95 2.4495 157.014 2.238L156.906 3.23208ZM168.433 4.72501C170.352 5.01269 172.265 5.31913 174.171 5.64416L174.339 4.65838C172.426 4.33224 170.507 4.02473 168.581 3.73606L168.433 4.72501ZM179.891 6.67852C181.796 7.0429 183.695 7.42589 185.587 7.82731L185.795 6.84908C183.896 6.44628 181.991 6.06196 180.079 5.69631L179.891 6.67852ZM191.261 9.09089C193.15 9.5316 195.032 9.99074 196.907 10.4681L197.154 9.49904C195.272 9.02001 193.384 8.55928 191.488 8.11704L191.261 9.09089ZM202.525 11.9592C204.395 12.4756 206.257 13.0102 208.111 13.5629L208.396 12.6045C206.536 12.05 204.667 11.5135 202.791 10.9953L202.525 11.9592ZM213.664 15.2792C215.511 15.8705 217.35 16.4798 219.181 17.1069L219.505 16.1608C217.668 15.5316 215.822 14.9202 213.969 14.3268L213.664 15.2792ZM224.66 19.0456C226.481 19.7108 228.294 20.3938 230.099 21.0942L230.461 20.162C228.65 19.4591 226.831 18.7738 225.003 18.1063L224.66 19.0456ZM235.495 23.2521C237.288 23.9901 239.072 24.7456 240.847 25.5182L241.246 24.6013C239.465 23.826 237.675 23.068 235.876 22.3274L235.495 23.2521ZM0.786687 28.2135C0.536936 28.3313 0.429976 28.6293 0.547786 28.8791C0.665596 29.1288 0.963562 29.2358 1.21331 29.118L0.786687 28.2135ZM249 28.6657L245.686 23.9384L243.249 29.1724L249 28.6657ZM1.21331 29.118C2.08898 28.7049 2.96704 28.2961 3.84747 27.8916L3.42995 26.9829C2.54648 27.3888 1.66538 27.799 0.786687 28.2135L1.21331 29.118ZM9.15277 25.5182C10.9276 24.7456 12.7116 23.9901 14.5047 23.2521L14.1241 22.3274C12.3248 23.068 10.5346 23.826 8.75362 24.6013L9.15277 25.5182ZM19.9013 21.0942C21.7055 20.3938 23.5185 19.7108 25.34 19.0456L24.997 18.1063C23.1692 18.7738 21.3499 19.4591 19.5394 20.162L19.9013 21.0942ZM30.8193 17.1069C32.65 16.4798 34.489 15.8705 36.3361 15.2792L36.0312 14.3268C34.1777 14.9201 32.3323 15.5316 30.4952 16.1608L30.8193 17.1069ZM41.8892 13.5629C43.7435 13.0102 45.6055 12.4756 47.475 11.9592L47.2088 10.9953C45.3327 11.5135 43.4643 12.05 41.6036 12.6045L41.8892 13.5629ZM53.0931 10.4681C54.9678 9.99074 56.8498 9.5316 58.7388 9.09089L58.5116 8.11704C56.616 8.55928 54.7275 9.02001 52.8464 9.49903L53.0931 10.4681ZM64.4127 7.82731C66.3047 7.42589 68.2035 7.0429 70.109 6.67851L69.9212 5.69631C68.0091 6.06195 66.1037 6.44628 64.2051 6.84908L64.4127 7.82731ZM75.8288 5.64416C77.7353 5.31913 79.6481 5.01268 81.5671 4.725L81.4188 3.73605C79.4933 4.02473 77.5738 4.33223 75.6608 4.65838L75.8288 5.64416ZM87.3234 3.9209C89.2413 3.67252 91.1651 3.44286 93.0945 3.23208L92.9859 2.238C91.0499 2.44949 89.1195 2.67995 87.195 2.92918L87.3234 3.9209ZM98.8778 2.65858C100.804 2.48691 102.736 2.33404 104.673 2.20016L104.604 1.20254C102.66 1.33688 100.722 1.49027 98.7891 1.66253L98.8778 2.65858ZM110.474 1.85693C112.405 1.76182 114.341 1.68557 116.282 1.62837L116.253 0.628799C114.305 0.6862 112.362 0.762705 110.424 0.858135L110.474 1.85693ZM122.093 1.51431C123.061 1.50482 124.03 1.50006 125 1.50006V0.500061C124.026 0.500061 123.054 0.504834 122.083 0.514357L122.093 1.51431ZM125 1.50006C125.97 1.50006 126.939 1.50482 127.908 1.51431L127.917 0.514358C126.946 0.504834 125.974 0.500061 125 0.500061V1.50006ZM133.718 1.62837C135.659 1.68557 137.595 1.76182 139.526 1.85693L139.576 0.858137C137.638 0.762706 135.695 0.686201 133.747 0.6288L133.718 1.62837ZM145.327 2.20017C147.264 2.33405 149.196 2.48691 151.122 2.65858L151.211 1.66253C149.278 1.49027 147.34 1.33688 145.396 1.20255L145.327 2.20017ZM156.906 3.23208C158.835 3.44286 160.759 3.67253 162.677 3.9209L162.805 2.92918C160.881 2.67995 158.95 2.4495 157.014 2.238L156.906 3.23208ZM168.433 4.72501C170.352 5.01269 172.265 5.31913 174.171 5.64416L174.339 4.65838C172.426 4.33224 170.507 4.02473 168.581 3.73606L168.433 4.72501ZM179.891 6.67852C181.796 7.0429 183.695 7.42589 185.587 7.82731L185.795 6.84908C183.896 6.44628 181.991 6.06196 180.079 5.69631L179.891 6.67852ZM191.261 9.09089C193.15 9.5316 195.032 9.99074 196.907 10.4681L197.154 9.49904C195.272 9.02001 193.384 8.55928 191.488 8.11704L191.261 9.09089ZM202.525 11.9592C204.395 12.4756 206.257 13.0102 208.111 13.5629L208.396 12.6045C206.536 12.05 204.667 11.5135 202.791 10.9953L202.525 11.9592ZM213.664 15.2792C215.511 15.8705 217.35 16.4798 219.181 17.1069L219.505 16.1608C217.668 15.5316 215.822 14.9202 213.969 14.3268L213.664 15.2792ZM224.66 19.0456C226.481 19.7108 228.294 20.3938 230.099 21.0942L230.461 20.162C228.65 19.4591 226.831 18.7738 225.003 18.1063L224.66 19.0456ZM235.495 23.2521C237.288 23.9901 239.072 24.7456 240.847 25.5182L241.246 24.6013C239.465 23.826 237.675 23.068 235.876 22.3274L235.495 23.2521Z" fill="#364187"/>
</svg>
