<svg width="249" height="30" viewBox="0 0 249 30" fill="none" xmlns="http://www.w3.org/2000/svg">
<path d="M0.786687 1.78659C0.536936 1.66878 0.429976 1.37082 0.547786 1.12106C0.665596 0.871313 0.963562 0.764353 1.21331 0.882164L0.786687 1.78659ZM249 1.33438L245.686 6.06177L243.249 0.827742L249 1.33438ZM1.21331 0.882164C2.08898 1.29522 2.96704 1.70403 3.84747 2.10857L3.42995 3.01724C2.54648 2.6113 1.66538 2.20108 0.786687 1.78659L1.21331 0.882164ZM9.15277 4.48191C10.9276 5.25455 12.7116 6.00998 14.5047 6.74799L14.1241 7.67273C12.3248 6.93216 10.5346 6.17412 8.75362 5.3988L9.15277 4.48191ZM19.9013 8.90588C21.7055 9.60635 23.5185 10.2893 25.34 10.9545L24.997 11.8939C23.1692 11.2263 21.3499 10.541 19.5394 9.8381L19.9013 8.90588ZM30.8193 12.8933C32.65 13.5203 34.489 14.1296 36.3361 14.721L36.0312 15.6734C34.1777 15.08 32.3323 14.4686 30.4952 13.8393L30.8193 12.8933ZM41.8892 16.4372C43.7435 16.9899 45.6055 17.5245 47.475 18.041L47.2088 19.0049C45.3327 18.4867 43.4643 17.9502 41.6036 17.3956L41.8892 16.4372ZM53.0931 19.532C54.9678 20.0094 56.8498 20.4685 58.7388 20.9092L58.5116 21.8831C56.616 21.4408 54.7275 20.9801 52.8464 20.5011L53.0931 19.532ZM64.4127 22.1728C66.3047 22.5742 68.2035 22.9572 70.109 23.3216L69.9212 24.3038C68.0091 23.9382 66.1037 23.5538 64.2051 23.151L64.4127 22.1728ZM75.8288 24.356C77.7353 24.681 79.6481 24.9874 81.5671 25.2751L81.4188 26.2641C79.4933 25.9754 77.5738 25.6679 75.6608 25.3417L75.8288 24.356ZM87.3234 26.0792C89.2413 26.3276 91.1651 26.5573 93.0945 26.768L92.9859 27.7621C91.0499 27.5506 89.1195 27.3202 87.195 27.0709L87.3234 26.0792ZM98.8778 27.3415C100.804 27.5132 102.736 27.6661 104.673 27.8L104.604 28.7976C102.66 28.6632 100.722 28.5099 98.7891 28.3376L98.8778 27.3415ZM110.474 28.1432C112.405 28.2383 114.341 28.3146 116.282 28.3718L116.253 29.3713C114.305 29.3139 112.362 29.2374 110.424 29.142L110.474 28.1432ZM122.093 28.4858C123.061 28.4953 124.03 28.5001 125 28.5001V29.5001C124.026 29.5001 123.054 29.4953 122.083 29.4858L122.093 28.4858ZM125 28.5001C125.97 28.5001 126.939 28.4953 127.908 28.4858L127.917 29.4858C126.946 29.4953 125.974 29.5001 125 29.5001V28.5001ZM133.718 28.3718C135.659 28.3145 137.595 28.2383 139.526 28.1432L139.576 29.142C137.638 29.2374 135.695 29.3139 133.747 29.3713L133.718 28.3718ZM145.327 27.8C147.264 27.6661 149.196 27.5132 151.122 27.3415L151.211 28.3376C149.278 28.5099 147.34 28.6632 145.396 28.7976L145.327 27.8ZM156.906 26.768C158.835 26.5573 160.759 26.3276 162.677 26.0792L162.805 27.0709C160.881 27.3202 158.95 27.5506 157.014 27.7621L156.906 26.768ZM168.433 25.2751C170.352 24.9874 172.265 24.681 174.171 24.356L174.339 25.3417C172.426 25.6679 170.507 25.9754 168.581 26.2641L168.433 25.2751ZM179.891 23.3216C181.796 22.9572 183.695 22.5742 185.587 22.1728L185.795 23.151C183.896 23.5538 181.991 23.9382 180.079 24.3038L179.891 23.3216ZM191.261 20.9092C193.15 20.4685 195.032 20.0094 196.907 19.532L197.154 20.5011C195.272 20.9801 193.384 21.4408 191.488 21.8831L191.261 20.9092ZM202.525 18.041C204.395 17.5245 206.257 16.9899 208.111 16.4372L208.396 17.3956C206.536 17.9502 204.667 18.4866 202.791 19.0049L202.525 18.041ZM213.664 14.721C215.511 14.1296 217.35 13.5203 219.181 12.8933L219.505 13.8393C217.668 14.4685 215.822 15.08 213.969 15.6733L213.664 14.721ZM224.66 10.9545C226.481 10.2893 228.294 9.60634 230.099 8.90588L230.461 9.83809C228.65 10.541 226.831 11.2263 225.003 11.8939L224.66 10.9545ZM235.495 6.74799C237.288 6.00998 239.072 5.25455 240.847 4.4819L241.246 5.39879C239.465 6.17411 237.675 6.93215 235.876 7.67272L235.495 6.74799ZM0.786687 1.78659C0.536936 1.66878 0.429976 1.37082 0.547786 1.12106C0.665596 0.871313 0.963562 0.764353 1.21331 0.882164L0.786687 1.78659ZM249 1.33438L245.686 6.06177L243.249 0.827742L249 1.33438ZM1.21331 0.882164C2.08898 1.29522 2.96704 1.70403 3.84747 2.10857L3.42995 3.01724C2.54648 2.6113 1.66538 2.20108 0.786687 1.78659L1.21331 0.882164ZM9.15277 4.48191C10.9276 5.25455 12.7116 6.00998 14.5047 6.74799L14.1241 7.67273C12.3248 6.93216 10.5346 6.17412 8.75362 5.3988L9.15277 4.48191ZM19.9013 8.90588C21.7055 9.60635 23.5185 10.2893 25.34 10.9545L24.997 11.8939C23.1692 11.2263 21.3499 10.541 19.5394 9.8381L19.9013 8.90588ZM30.8193 12.8933C32.65 13.5203 34.489 14.1296 36.3361 14.721L36.0312 15.6734C34.1777 15.08 32.3323 14.4686 30.4952 13.8393L30.8193 12.8933ZM41.8892 16.4372C43.7435 16.9899 45.6055 17.5245 47.475 18.041L47.2088 19.0049C45.3327 18.4867 43.4643 17.9502 41.6036 17.3956L41.8892 16.4372ZM53.0931 19.532C54.9678 20.0094 56.8498 20.4685 58.7388 20.9092L58.5116 21.8831C56.616 21.4408 54.7275 20.9801 52.8464 20.5011L53.0931 19.532ZM64.4127 22.1728C66.3047 22.5742 68.2035 22.9572 70.109 23.3216L69.9212 24.3038C68.0091 23.9382 66.1037 23.5538 64.2051 23.151L64.4127 22.1728ZM75.8288 24.356C77.7353 24.681 79.6481 24.9874 81.5671 25.2751L81.4188 26.2641C79.4933 25.9754 77.5738 25.6679 75.6608 25.3417L75.8288 24.356ZM87.3234 26.0792C89.2413 26.3276 91.1651 26.5573 93.0945 26.768L92.9859 27.7621C91.0499 27.5506 89.1195 27.3202 87.195 27.0709L87.3234 26.0792ZM98.8778 27.3415C100.804 27.5132 102.736 27.6661 104.673 27.8L104.604 28.7976C102.66 28.6632 100.722 28.5099 98.7891 28.3376L98.8778 27.3415ZM110.474 28.1432C112.405 28.2383 114.341 28.3146 116.282 28.3718L116.253 29.3713C114.305 29.3139 112.362 29.2374 110.424 29.142L110.474 28.1432ZM122.093 28.4858C123.061 28.4953 124.03 28.5001 125 28.5001V29.5001C124.026 29.5001 123.054 29.4953 122.083 29.4858L122.093 28.4858ZM125 28.5001C125.97 28.5001 126.939 28.4953 127.908 28.4858L127.917 29.4858C126.946 29.4953 125.974 29.5001 125 29.5001V28.5001ZM133.718 28.3718C135.659 28.3145 137.595 28.2383 139.526 28.1432L139.576 29.142C137.638 29.2374 135.695 29.3139 133.747 29.3713L133.718 28.3718ZM145.327 27.8C147.264 27.6661 149.196 27.5132 151.122 27.3415L151.211 28.3376C149.278 28.5099 147.34 28.6632 145.396 28.7976L145.327 27.8ZM156.906 26.768C158.835 26.5573 160.759 26.3276 162.677 26.0792L162.805 27.0709C160.881 27.3202 158.95 27.5506 157.014 27.7621L156.906 26.768ZM168.433 25.2751C170.352 24.9874 172.265 24.681 174.171 24.356L174.339 25.3417C172.426 25.6679 170.507 25.9754 168.581 26.2641L168.433 25.2751ZM179.891 23.3216C181.796 22.9572 183.695 22.5742 185.587 22.1728L185.795 23.151C183.896 23.5538 181.991 23.9382 180.079 24.3038L179.891 23.3216ZM191.261 20.9092C193.15 20.4685 195.032 20.0094 196.907 19.532L197.154 20.5011C195.272 20.9801 193.384 21.4408 191.488 21.8831L191.261 20.9092ZM202.525 18.041C204.395 17.5245 206.257 16.9899 208.111 16.4372L208.396 17.3956C206.536 17.9502 204.667 18.4866 202.791 19.0049L202.525 18.041ZM213.664 14.721C215.511 14.1296 217.35 13.5203 219.181 12.8933L219.505 13.8393C217.668 14.4685 215.822 15.08 213.969 15.6733L213.664 14.721ZM224.66 10.9545C226.481 10.2893 228.294 9.60634 230.099 8.90588L230.461 9.83809C228.65 10.541 226.831 11.2263 225.003 11.8939L224.66 10.9545ZM235.495 6.74799C237.288 6.00998 239.072 5.25455 240.847 4.4819L241.246 5.39879C239.465 6.17411 237.675 6.93215 235.876 7.67272L235.495 6.74799Z" fill="#364187"/>
</svg>
