<svg width="48" height="31" viewBox="0 0 48 31" fill="none" xmlns="http://www.w3.org/2000/svg">
<mask id="mask0_1415_1746" style="mask-type:luminance" maskUnits="userSpaceOnUse" x="0" y="0" width="31" height="31">
<path d="M0 0H30.6805V30.6805H0V0Z" fill="white"/>
</mask>
<g mask="url(#mask0_1415_1746)">
<mask id="mask1_1415_1746" style="mask-type:luminance" maskUnits="userSpaceOnUse" x="-11" y="-19" width="70" height="69">
<path d="M-10.2205 16.4513L24.7706 -18.5398L58.0117 14.7026L23.0206 49.6937L-10.2205 16.4513Z" fill="white"/>
</mask>
<g mask="url(#mask1_1415_1746)">
<mask id="mask2_1415_1746" style="mask-type:luminance" maskUnits="userSpaceOnUse" x="-11" y="-19" width="70" height="69">
<path d="M-10.2209 16.4511L24.7701 -18.54L58.0112 14.7023L23.0201 49.6934L-10.2209 16.4511Z" fill="white"/>
</mask>
<g mask="url(#mask2_1415_1746)">
<path d="M24.7642 19.9435C24.7642 21.2296 24.2629 22.4397 23.3531 23.3495C22.4433 24.2593 21.2346 24.7606 19.9472 24.7606H6.3634C6.14562 24.7606 5.99742 24.6588 5.91237 24.5737C5.82732 24.4874 5.72551 24.3405 5.72551 24.1214V10.5376C5.72551 9.21026 6.26546 8.00665 7.13789 7.13423C8.01031 6.2618 9.21521 5.72185 10.5425 5.72185H16.5554L22.2204 0.0568848H10.5425C7.74227 0.0568848 5.11082 1.14709 3.13014 3.12648C1.15076 5.10587 0.0605469 7.73861 0.0605469 10.5389V24.1227C0.0605469 25.8057 0.716477 27.3894 1.9072 28.5789C3.09664 29.7696 4.68041 30.4255 6.36469 30.4255H19.9472C22.7475 30.4255 25.3802 29.3353 27.3596 27.3547C29.339 25.3753 30.4292 22.7425 30.4305 19.9435L30.4292 8.26438L24.7642 13.9294V19.9435Z" fill="#364187"/>
</g>
</g>
</g>
<mask id="mask3_1415_1746" style="mask-type:luminance" maskUnits="userSpaceOnUse" x="17" y="0" width="31" height="31">
<path d="M17.3196 0H48.0001V30.6805H17.3196V0Z" fill="white"/>
</mask>
<g mask="url(#mask3_1415_1746)">
<mask id="mask4_1415_1746" style="mask-type:luminance" maskUnits="userSpaceOnUse" x="-11" y="-20" width="70" height="70">
<path d="M-10.0557 15.7914L24.9354 -19.1997L58.1765 14.0427L23.1854 49.0338L-10.0557 15.7914Z" fill="white"/>
</mask>
<g mask="url(#mask4_1415_1746)">
<mask id="mask5_1415_1746" style="mask-type:luminance" maskUnits="userSpaceOnUse" x="-11" y="-20" width="70" height="70">
<path d="M-10.0559 15.7916L24.9352 -19.1995L58.1763 14.0429L23.1852 49.034L-10.0559 15.7916Z" fill="white"/>
</mask>
<g mask="url(#mask5_1415_1746)">
<path d="M46.0926 1.95896C44.9018 0.768235 43.3193 0.112305 41.6351 0.112305H28.0513C25.2523 0.112305 22.6195 1.20251 20.6402 3.18319C18.6608 5.16258 17.5706 7.79403 17.5706 10.5943V22.2735L23.2355 16.6072V10.5943C23.2355 9.26568 23.7755 8.06207 24.6479 7.19094C25.5203 6.31722 26.7239 5.77727 28.0525 5.77727H41.6364C41.8541 5.77727 42.0023 5.87908 42.0874 5.96413C42.1724 6.04918 42.2742 6.19738 42.2742 6.41516V19.999C42.2742 21.2851 41.773 22.4964 40.8632 23.4062C39.9534 24.316 38.7446 24.816 37.4572 24.816H31.4443L25.7793 30.481H37.4572C40.2575 30.481 42.8889 29.3907 44.8696 27.4114C46.849 25.432 47.9392 22.7992 47.9392 19.999V6.41516C47.9392 4.73216 47.2833 3.1484 46.0926 1.95896Z" fill="url(#paint0_linear_1415_1746)"/>
</g>
</g>
</g>
<defs>
<linearGradient id="paint0_linear_1415_1746" x1="32.7549" y1="0.112305" x2="32.7549" y2="30.481" gradientUnits="userSpaceOnUse">
<stop stop-color="#364187"/>
<stop offset="1" stop-color="#31AC54"/>
</linearGradient>
</defs>
</svg>
