<svg width="48" height="31" viewBox="0 0 48 31" fill="none" xmlns="http://www.w3.org/2000/svg">
<mask id="mask0_1415_1773" style="mask-type:luminance" maskUnits="userSpaceOnUse" x="0" y="0" width="31" height="31">
<path d="M0 0.159668H30.6805V30.8402H0V0.159668Z" fill="white"/>
</mask>
<g mask="url(#mask0_1415_1773)">
<mask id="mask1_1415_1773" style="mask-type:luminance" maskUnits="userSpaceOnUse" x="-11" y="-19" width="70" height="69">
<path d="M-10.2205 16.611L24.7706 -18.3801L58.0117 14.8622L23.0206 49.8533L-10.2205 16.611Z" fill="white"/>
</mask>
<g mask="url(#mask1_1415_1773)">
<mask id="mask2_1415_1773" style="mask-type:luminance" maskUnits="userSpaceOnUse" x="-11" y="-19" width="70" height="69">
<path d="M-10.2211 16.6107L24.77 -18.3804L58.0111 14.862L23.02 49.8531L-10.2211 16.6107Z" fill="white"/>
</mask>
<g mask="url(#mask2_1415_1773)">
<path d="M24.7641 20.1032C24.7641 21.3893 24.2628 22.5994 23.353 23.5092C22.4432 24.4189 21.2345 24.9202 19.9471 24.9202H6.36328C6.1455 24.9202 5.9973 24.8184 5.91225 24.7334C5.8272 24.647 5.72539 24.5001 5.72539 24.2811V10.6973C5.72539 9.36993 6.26534 8.16632 7.13777 7.29389C8.01019 6.42147 9.21509 5.88152 10.5424 5.88152H16.5553L22.2203 0.216553H10.5424C7.74215 0.216553 5.1107 1.30676 3.13002 3.28615C1.15063 5.26554 0.0604248 7.89828 0.0604248 10.6985V24.2824C0.0604248 25.9653 0.716355 27.5491 1.90708 28.7386C3.09652 29.9293 4.68028 30.5852 6.36457 30.5852H19.9471C22.7474 30.5852 25.3801 29.495 27.3595 27.5143C29.3389 25.5349 30.4291 22.9022 30.4304 20.1032L30.4291 8.42405L24.7641 14.089V20.1032Z" fill="white"/>
</g>
</g>
</g>
<mask id="mask3_1415_1773" style="mask-type:luminance" maskUnits="userSpaceOnUse" x="17" y="0" width="31" height="31">
<path d="M17.3195 0.159668H48V30.8402H17.3195V0.159668Z" fill="white"/>
</mask>
<g mask="url(#mask3_1415_1773)">
<mask id="mask4_1415_1773" style="mask-type:luminance" maskUnits="userSpaceOnUse" x="-11" y="-20" width="70" height="70">
<path d="M-10.0558 15.9511L24.9353 -19.04L58.1764 14.2023L23.1853 49.1934L-10.0558 15.9511Z" fill="white"/>
</mask>
<g mask="url(#mask4_1415_1773)">
<mask id="mask5_1415_1773" style="mask-type:luminance" maskUnits="userSpaceOnUse" x="-11" y="-20" width="70" height="70">
<path d="M-10.0559 15.9513L24.9352 -19.0398L58.1763 14.2026L23.1852 49.1937L-10.0559 15.9513Z" fill="white"/>
</mask>
<g mask="url(#mask5_1415_1773)">
<path d="M46.0927 2.11863C44.9019 0.927903 43.3195 0.271973 41.6352 0.271973H28.0514C25.2524 0.271973 22.6197 1.36218 20.6403 3.34286C18.6609 5.32225 17.5707 7.9537 17.5707 10.754V22.4331L23.2356 16.7669V10.754C23.2356 9.42535 23.7756 8.22174 24.648 7.3506C25.5204 6.47689 26.7241 5.93694 28.0527 5.93694H41.6365C41.8543 5.93694 42.0025 6.03874 42.0875 6.1238C42.1726 6.20885 42.2744 6.35704 42.2744 6.57483V20.1586C42.2744 21.4447 41.7731 22.6561 40.8633 23.5659C39.9535 24.4757 38.7447 24.9757 37.4573 24.9757H31.4444L25.7795 30.6406H37.4573C40.2576 30.6406 42.8891 29.5504 44.8697 27.571C46.8491 25.5916 47.9393 22.9589 47.9393 20.1586V6.57483C47.9393 4.89183 47.2834 3.30806 46.0927 2.11863Z" fill="white"/>
</g>
</g>
</g>
</svg>
