<svg width="32" height="35" viewBox="0 0 32 35" fill="none" xmlns="http://www.w3.org/2000/svg">
<g clip-path="url(#clip0_371_2010)">
<path d="M31.7105 17.4118C31.7105 7.79554 24.6119 0 15.8553 0C7.09864 0 0 7.79554 0 17.4118C0 26.1025 5.79801 33.3059 13.3779 34.6122V22.445H9.35213V17.4118H13.3779V13.5758C13.3779 9.21195 15.745 6.8015 19.3667 6.8015C21.1008 6.8015 22.9158 7.14158 22.9158 7.14158V11.4265H20.9166C18.9471 11.4265 18.3327 12.7688 18.3327 14.1471V17.4118H22.73L22.0271 22.445H18.3327V34.6122C25.9125 33.3059 31.7105 26.1025 31.7105 17.4118Z" fill="#0CCE68"/>
</g>
<defs>
<clipPath id="clip0_371_2010">
<rect width="31.7105" height="34.8237" fill="white"/>
</clipPath>
</defs>
</svg>
