<svg width="179" height="143" viewBox="0 0 179 143" fill="none" xmlns="http://www.w3.org/2000/svg">
<path d="M168.998 96.5595H178.777L165.989 83.6658C147.685 65.1767 122.361 54.7157 95.7824 54.7157H92.7736H86.2543H82.9947C56.6671 54.7157 31.3424 65.1767 12.7877 83.6658L0 96.5595H9.77884C36.1065 96.5595 61.4311 86.0985 79.9859 67.6094L89.514 58.1216C83.9977 90.7208 36.1065 142.296 36.1065 142.296H89.7647H143.423C143.423 142.296 96.0332 91.4507 90.0154 58.8514L98.7913 67.8527C117.095 86.0986 142.42 96.5595 168.998 96.5595Z" fill="white"/>
<path d="M81.4901 35.7401L89.263 27.9552L97.036 35.7401C112.08 51.0666 133.142 59.5813 154.957 59.5813H162.98L152.449 48.8771C137.405 33.5506 116.343 25.0358 94.5286 25.0358H92.0212H86.5049H83.9975C62.1832 25.0358 41.3718 33.5506 26.0767 48.8771L15.5457 59.8246H23.5693C45.3836 59.8246 66.4457 51.0666 81.4901 35.7401Z" fill="white"/>
<path d="M82.9949 8.97944L89.2634 2.65421L95.5319 8.97944C107.818 21.3866 124.868 28.4417 142.671 28.4417H149.19L140.665 19.6837C128.379 7.27649 111.328 0.221436 93.5259 0.221436H91.52H87.0067H85.0008C67.1983 0.221436 50.148 7.27649 37.8618 19.6837L29.3367 28.4417H35.8559C53.6584 28.4417 70.7087 21.3866 82.9949 8.97944Z" fill="white"/>
</svg>
