<svg width="215" height="145" viewBox="0 0 215 145" fill="none" xmlns="http://www.w3.org/2000/svg">
<mask id="mask0_1415_1963" style="mask-type:luminance" maskUnits="userSpaceOnUse" x="0" y="0" width="138" height="145">
<path d="M0 0.913086H137.208V144.086H0V0.913086Z" fill="white"/>
</mask>
<g mask="url(#mask0_1415_1963)">
<mask id="mask1_1415_1963" style="mask-type:luminance" maskUnits="userSpaceOnUse" x="-46" y="-86" width="306" height="319">
<path d="M-45.71 77.683L110.775 -85.606L259.434 69.5224L102.949 232.811L-45.71 77.683Z" fill="white"/>
</mask>
<g mask="url(#mask1_1415_1963)">
<mask id="mask2_1415_1963" style="mask-type:luminance" maskUnits="userSpaceOnUse" x="-46" y="-86" width="306" height="319">
<path d="M-45.7119 77.6831L110.773 -85.6058L259.432 69.5225L102.947 232.811L-45.7119 77.6831Z" fill="white"/>
</mask>
<g mask="url(#mask2_1415_1963)">
<path d="M110.748 93.9805C110.748 99.9821 108.506 105.629 104.437 109.875C100.369 114.12 94.9629 116.46 89.2055 116.46H28.4568C27.4828 116.46 26.8201 115.984 26.4397 115.588C26.0594 115.185 25.6041 114.499 25.6041 113.477V50.0868C25.6041 43.8928 28.0188 38.276 31.9204 34.2048C35.822 30.1335 41.2105 27.6138 47.1465 27.6138H74.0371L99.3716 1.17773H47.1465C34.6233 1.17773 22.8551 6.26529 13.9972 15.5023C5.14511 24.7393 0.269531 37.0252 0.269531 50.0928V113.483C0.269531 121.337 3.20294 128.727 8.52804 134.278C13.8474 139.835 20.9302 142.896 28.4626 142.896H89.2055C101.729 142.896 113.503 137.808 122.355 128.565C131.207 119.328 136.083 107.042 136.088 93.9805L136.083 39.4787L110.748 65.9148V93.9805Z" fill="white"/>
</g>
</g>
</g>
<mask id="mask3_1415_1963" style="mask-type:luminance" maskUnits="userSpaceOnUse" x="77" y="0" width="138" height="145">
<path d="M77.4546 0.913086H214.662V144.086H77.4546V0.913086Z" fill="white"/>
</mask>
<g mask="url(#mask3_1415_1963)">
<mask id="mask4_1415_1963" style="mask-type:luminance" maskUnits="userSpaceOnUse" x="-45" y="-89" width="306" height="319">
<path d="M-44.9724 74.6039L111.513 -88.6851L260.172 66.4433L103.686 229.732L-44.9724 74.6039Z" fill="white"/>
</mask>
<g mask="url(#mask4_1415_1963)">
<mask id="mask5_1415_1963" style="mask-type:luminance" maskUnits="userSpaceOnUse" x="-45" y="-89" width="306" height="319">
<path d="M-44.9724 74.6038L111.513 -88.6851L260.172 66.4433L103.686 229.732L-44.9724 74.6038Z" fill="white"/>
</mask>
<g mask="url(#mask5_1415_1963)">
<path d="M206.132 10.0536C200.807 4.49699 193.73 1.43604 186.198 1.43604H125.449C112.931 1.43604 101.157 6.52359 92.3053 15.7666C83.4532 25.0036 78.5776 37.2835 78.5776 50.3511V104.853L103.912 78.4109V50.3511C103.912 44.1511 106.327 38.5343 110.229 34.4691C114.13 30.3918 119.513 27.8721 125.455 27.8721H186.203C187.177 27.8721 187.84 28.3472 188.22 28.7441C188.601 29.141 189.056 29.8325 189.056 30.8488V94.2388C189.056 100.24 186.814 105.893 182.745 110.139C178.677 114.385 173.271 116.718 167.514 116.718H140.623L115.289 143.154H167.514C180.037 143.154 191.805 138.066 200.663 128.829C209.515 119.592 214.391 107.306 214.391 94.2388V30.8488C214.391 22.995 211.457 15.6042 206.132 10.0536Z" fill="white"/>
</g>
</g>
</g>
</svg>
