<svg width="33" height="35" viewBox="0 0 33 35" fill="none" xmlns="http://www.w3.org/2000/svg">
<g clip-path="url(#clip0_371_2003)">
<path d="M16.3816 3.13549C20.618 3.13549 21.1196 3.1559 22.7857 3.23751C24.334 3.31233 25.1702 3.59799 25.7276 3.83605C26.4646 4.14892 26.9972 4.5298 27.5485 5.13513C28.1059 5.74727 28.4465 6.3254 28.7314 7.13477C28.9482 7.74691 29.2083 8.67191 29.2764 10.3655C29.3508 12.2019 29.3693 12.7528 29.3693 17.3982C29.3693 22.0505 29.3508 22.6014 29.2764 24.431C29.2083 26.1314 28.9482 27.0496 28.7314 27.6617C28.4465 28.4711 28.0997 29.056 27.5485 29.6613C26.991 30.2735 26.4646 30.6476 25.7276 30.9604C25.1702 31.1985 24.3279 31.4841 22.7857 31.559C21.1134 31.6406 20.6118 31.661 16.3816 31.661C12.1453 31.661 11.6436 31.6406 9.9776 31.559C8.42923 31.4841 7.59311 31.1985 7.0357 30.9604C6.29868 30.6476 5.76604 30.2667 5.21482 29.6613C4.65741 29.0492 4.31677 28.4711 4.03187 27.6617C3.8151 27.0496 3.55497 26.1246 3.48684 24.431C3.41252 22.5946 3.39394 22.0437 3.39394 17.3982C3.39394 12.746 3.41252 12.1951 3.48684 10.3655C3.55497 8.66511 3.8151 7.74691 4.03187 7.13477C4.31677 6.3254 4.6636 5.74047 5.21482 5.13513C5.77223 4.523 6.29868 4.14892 7.0357 3.83605C7.59311 3.59799 8.43542 3.31233 9.9776 3.23751C11.6436 3.1559 12.1453 3.13549 16.3816 3.13549ZM16.3816 0C12.0772 0 11.5383 0.0204045 9.84753 0.102022C8.16291 0.18364 7.00473 0.482906 6.00139 0.911401C4.9547 1.3603 4.06903 1.95203 3.18956 2.92464C2.30389 3.89046 1.76506 4.86307 1.35629 6.00572C0.966103 7.11437 0.693591 8.37945 0.619269 10.2295C0.544948 12.0931 0.526367 12.6848 0.526367 17.4118C0.526367 22.1389 0.544948 22.7306 0.619269 24.5874C0.693591 26.4374 0.966103 27.7093 1.35629 28.8112C1.76506 29.9606 2.30389 30.9332 3.18956 31.899C4.06903 32.8648 4.9547 33.4634 5.9952 33.9055C7.00473 34.334 8.15672 34.6332 9.84134 34.7149C11.5322 34.7965 12.071 34.8169 16.3754 34.8169C20.6799 34.8169 21.2187 34.7965 22.9096 34.7149C24.5942 34.6332 25.7524 34.334 26.7557 33.9055C27.7962 33.4634 28.6819 32.8648 29.5613 31.899C30.4408 30.9332 30.9858 29.9606 31.3884 28.818C31.7786 27.7093 32.0511 26.4442 32.1254 24.5942C32.1998 22.7374 32.2183 22.1457 32.2183 17.4186C32.2183 12.6916 32.1998 12.0999 32.1254 10.2431C32.0511 8.39305 31.7786 7.12117 31.3884 6.01933C30.9982 4.86307 30.4594 3.89046 29.5737 2.92464C28.6943 1.95883 27.8086 1.3603 26.7681 0.918202C25.7585 0.489708 24.6066 0.190442 22.9219 0.108824C21.2249 0.0204045 20.6861 0 16.3816 0Z" fill="#0CCE68"/>
<path d="M16.382 8.4679C11.8855 8.4679 8.23755 12.474 8.23755 17.4119C8.23755 22.3498 11.8855 26.3558 16.382 26.3558C20.8784 26.3558 24.5264 22.3498 24.5264 17.4119C24.5264 12.474 20.8784 8.4679 16.382 8.4679ZM16.382 23.2135C13.4648 23.2135 11.0989 20.6154 11.0989 17.4119C11.0989 14.2084 13.4648 11.6102 16.382 11.6102C19.2991 11.6102 21.665 14.2084 21.665 17.4119C21.665 20.6154 19.2991 23.2135 16.382 23.2135Z" fill="#0CCE68"/>
<path d="M26.7493 8.11419C26.7493 9.27044 25.8946 10.2022 24.8479 10.2022C23.795 10.2022 22.9465 9.26364 22.9465 8.11419C22.9465 6.95793 23.8012 6.02612 24.8479 6.02612C25.8946 6.02612 26.7493 6.96473 26.7493 8.11419Z" fill="#0CCE68"/>
</g>
<defs>
<clipPath id="clip0_371_2003">
<rect width="31.7105" height="34.8237" fill="white" transform="translate(0.526367)"/>
</clipPath>
</defs>
</svg>
