<svg width="32" height="35" viewBox="0 0 32 35" fill="none" xmlns="http://www.w3.org/2000/svg">
<g clip-path="url(#clip0_371_2000)">
<path d="M29.6523 0H2.63019C1.33576 0 0.289062 1.12225 0.289062 2.50975V32.3071C0.289062 33.6946 1.33576 34.8237 2.63019 34.8237H29.6523C30.9467 34.8237 31.9996 33.6946 31.9996 32.3139V2.50975C31.9996 1.12225 30.9467 0 29.6523 0ZM9.69694 29.6749H4.9899V13.0521H9.69694V29.6749ZM7.34342 10.7872C5.83221 10.7872 4.6121 9.44728 4.6121 7.79452C4.6121 6.14175 5.83221 4.80186 7.34342 4.80186C8.84843 4.80186 10.0685 6.14175 10.0685 7.79452C10.0685 9.44048 8.84843 10.7872 7.34342 10.7872ZM27.3111 29.6749H22.6103V21.5948C22.6103 19.6699 22.5793 17.1874 20.1639 17.1874C17.7175 17.1874 17.3459 19.2891 17.3459 21.4587V29.6749H12.6512V13.0521H17.1601V15.3238H17.222C17.8475 14.0179 19.3835 12.6372 21.6689 12.6372C26.4317 12.6372 27.3111 16.0787 27.3111 20.5541V29.6749Z" fill="#0CCE68"/>
</g>
<defs>
<clipPath id="clip0_371_2000">
<rect width="31.7105" height="34.8237" fill="white" transform="translate(0.289551)"/>
</clipPath>
</defs>
</svg>
