<svg width="63" height="46" viewBox="0 0 63 46" fill="none" xmlns="http://www.w3.org/2000/svg">
<path d="M59.2704 30.8546H62.7L58.2151 26.7368C51.7956 20.8321 42.9139 17.4912 33.5924 17.4912H32.5372H30.2508H29.1076C19.8741 17.4912 10.9923 20.8321 4.48485 26.7368L0 30.8546H3.42959C12.6631 30.8546 21.5449 27.5137 28.0523 21.609L31.394 18.5789C29.4593 28.9899 12.6631 45.461 12.6631 45.461H31.4819H50.3007C50.3007 45.461 33.6804 29.223 31.5698 18.812L34.6477 21.6867C41.0672 27.5137 49.9489 30.8546 59.2704 30.8546Z" fill="#364187"/>
<path d="M28.5799 11.431L31.306 8.94478L34.0321 11.431C39.3084 16.3257 46.6952 19.045 54.3458 19.045H57.1599L53.4664 15.6265C48.1902 10.7317 40.8033 8.01245 33.1527 8.01245H32.2733H30.3387H29.4593C21.8087 8.01245 14.5098 10.7317 9.14556 15.6265L5.45215 19.1227H8.26617C15.9168 19.1227 23.3036 16.3257 28.5799 11.431Z" fill="#364187"/>
<path d="M29.1076 2.88463L31.3061 0.864586L33.5045 2.88463C37.8135 6.84702 43.7933 9.10014 50.0369 9.10014H52.3233L49.3334 6.30316C45.0244 2.34077 39.0446 0.0876465 32.801 0.0876465H32.0975H30.5146H29.8111C23.5675 0.0876465 17.5877 2.34077 13.2787 6.30316L10.2888 9.10014H12.5752C18.8188 9.10014 24.7986 6.84702 29.1076 2.88463Z" fill="#364187"/>
</svg>
