<svg width="33" height="35" viewBox="0 0 33 35" fill="none" xmlns="http://www.w3.org/2000/svg">
<g clip-path="url(#clip0_371_2008)">
<path d="M10.7385 31.5591C22.7018 31.5591 29.2471 20.6719 29.2471 11.2335C29.2471 10.9274 29.2409 10.6145 29.2285 10.3085C30.5017 9.29728 31.6005 8.04478 32.4732 6.60981C31.2874 7.1892 30.0284 7.56759 28.7392 7.73206C30.0966 6.8385 31.113 5.43477 31.6 3.78107C30.3229 4.61218 28.9264 5.19846 27.4702 5.51477C26.489 4.36987 25.1917 3.61181 23.7788 3.35779C22.366 3.10378 20.9163 3.36795 19.6539 4.10947C18.3915 4.85099 17.3867 6.02856 16.7948 7.46011C16.2029 8.89166 16.057 10.4975 16.3795 12.0293C13.7937 11.8868 11.2641 11.1491 8.95456 9.86409C6.64504 8.57909 4.60719 6.77543 2.97314 4.57004C2.14263 6.14252 1.88849 8.00326 2.26238 9.77412C2.63627 11.545 3.61012 13.093 4.98602 14.1037C3.95308 14.0677 2.94276 13.7623 2.03855 13.2127V13.3011C2.03762 14.9513 2.55711 16.5509 3.50871 17.8281C4.46031 19.1052 5.78528 19.981 7.2584 20.3067C6.30154 20.5942 5.29728 20.6361 4.32332 20.4291C4.73901 21.8483 5.54778 23.0895 6.63677 23.9796C7.72576 24.8697 9.04063 25.3643 10.3979 25.3942C8.09368 27.3819 5.24732 28.46 2.31726 28.4549C1.79763 28.454 1.27852 28.419 0.762695 28.3501C3.73933 30.4473 7.20196 31.5611 10.7385 31.5591Z" fill="#0CCE68"/>
</g>
<defs>
<clipPath id="clip0_371_2008">
<rect width="31.7105" height="34.8237" fill="white" transform="translate(0.763184)"/>
</clipPath>
</defs>
</svg>
