<svg width="112" height="155" viewBox="0 0 112 155" fill="none" xmlns="http://www.w3.org/2000/svg">
<g filter="url(#filter0_d_63_1332)">
<rect width="102" height="144.207" rx="17.5862" fill="white" shape-rendering="crispEdges"/>
<g clip-path="url(#clip0_63_1332)">
<path d="M51 72.1034C51 66.5065 53.2234 61.1387 57.1811 57.1811C61.1387 53.2234 66.5065 51 72.1034 51C77.7004 51 83.0682 53.2234 87.0258 57.1811C90.9835 61.1387 93.2069 66.5065 93.2069 72.1034C93.2069 77.7004 90.9835 83.0682 87.0258 87.0258C83.0682 90.9835 77.7004 93.2069 72.1034 93.2069C66.5065 93.2069 61.1387 90.9835 57.1811 87.0258C53.2234 83.0682 51 77.7004 51 72.1034Z" fill="#1ABCFE"/>
<path d="M8.79321 114.31C8.79321 108.713 11.0166 103.346 14.9743 99.3881C18.9319 95.4304 24.2997 93.207 29.8967 93.207H51.0001V114.31C51.0001 119.907 48.7767 125.275 44.8191 129.233C40.8614 133.191 35.4936 135.414 29.8967 135.414C24.2997 135.414 18.9319 133.191 14.9743 129.233C11.0166 125.275 8.79321 119.907 8.79321 114.31H8.79321Z" fill="#0ACF83"/>
<path d="M51 8.79321V51.0001H72.1034C77.7004 51.0001 83.0682 48.7767 87.0258 44.8191C90.9835 40.8614 93.2069 35.4936 93.2069 29.8967C93.2069 24.2997 90.9835 18.9319 87.0258 14.9743C83.0682 11.0166 77.7004 8.79321 72.1034 8.79321L51 8.79321Z" fill="#FF7262"/>
<path d="M8.79321 29.8967C8.79321 35.4936 11.0166 40.8614 14.9743 44.8191C18.9319 48.7767 24.2997 51.0001 29.8967 51.0001H51.0001V8.79321H29.8967C24.2997 8.79321 18.9319 11.0166 14.9743 14.9743C11.0166 18.9319 8.79321 24.2997 8.79321 29.8967H8.79321Z" fill="#F24E1E"/>
<path d="M8.79321 72.1034C8.79321 77.7004 11.0166 83.0682 14.9743 87.0258C18.9319 90.9835 24.2997 93.2069 29.8967 93.2069H51.0001V51H29.8967C24.2997 51 18.9319 53.2234 14.9743 57.1811C11.0166 61.1387 8.79321 66.5065 8.79321 72.1034H8.79321Z" fill="#A259FF"/>
</g>
</g>
<defs>
<filter id="filter0_d_63_1332" x="0" y="0" width="111.945" height="154.152" filterUnits="userSpaceOnUse" color-interpolation-filters="sRGB">
<feFlood flood-opacity="0" result="BackgroundImageFix"/>
<feColorMatrix in="SourceAlpha" type="matrix" values="0 0 0 0 0 0 0 0 0 0 0 0 0 0 0 0 0 0 127 0" result="hardAlpha"/>
<feOffset dx="6.6302" dy="6.6302"/>
<feGaussianBlur stdDeviation="1.65755"/>
<feComposite in2="hardAlpha" operator="out"/>
<feColorMatrix type="matrix" values="0 0 0 0 0 0 0 0 0 0 0 0 0 0 0 0 0 0 0.1 0"/>
<feBlend mode="normal" in2="BackgroundImageFix" result="effect1_dropShadow_63_1332"/>
<feBlend mode="normal" in="SourceGraphic" in2="effect1_dropShadow_63_1332" result="shape"/>
</filter>
<clipPath id="clip0_63_1332">
<rect width="84.4138" height="126.621" fill="white" transform="translate(8.79321 8.79321)"/>
</clipPath>
</defs>
</svg>
