<svg width="89" height="122" viewBox="0 0 89 122" fill="none" xmlns="http://www.w3.org/2000/svg">
<g filter="url(#filter0_d_392_1870)">
<rect width="80.6342" height="114" rx="13.9024" fill="white" shape-rendering="crispEdges"/>
<g clip-path="url(#clip0_392_1870)">
<path d="M40.3174 57.0001C40.3174 52.5755 42.075 48.3321 45.2037 45.2035C48.3324 42.0748 52.5757 40.3171 57.0003 40.3171C61.4249 40.3171 65.6683 42.0748 68.7969 45.2035C71.9256 48.3321 73.6832 52.5755 73.6832 57.0001C73.6832 61.4247 71.9256 65.668 68.7969 68.7967C65.6683 71.9253 61.4249 73.683 57.0003 73.683C52.5757 73.683 48.3324 71.9253 45.2037 68.7967C42.075 65.668 40.3174 61.4247 40.3174 57.0001Z" fill="#1ABCFE"/>
<path d="M6.95117 90.3658C6.95117 85.9412 8.70883 81.6978 11.8375 78.5692C14.9661 75.4405 19.2095 73.6829 23.6341 73.6829H40.317V90.3658C40.317 94.7904 38.5594 99.0337 35.4307 102.162C32.3021 105.291 28.0587 107.049 23.6341 107.049C19.2095 107.049 14.9661 105.291 11.8375 102.162C8.70883 99.0337 6.95117 94.7904 6.95117 90.3658H6.95117Z" fill="#0ACF83"/>
<path d="M40.3174 6.95117V40.317H57.0003C61.4249 40.317 65.6683 38.5594 68.7969 35.4307C71.9256 32.3021 73.6832 28.0587 73.6832 23.6341C73.6832 19.2095 71.9256 14.9661 68.7969 11.8375C65.6683 8.70883 61.4249 6.95117 57.0003 6.95117L40.3174 6.95117Z" fill="#FF7262"/>
<path d="M6.95117 23.6341C6.95117 28.0587 8.70883 32.3021 11.8375 35.4307C14.9661 38.5594 19.2095 40.317 23.6341 40.317H40.317V6.95117H23.6341C19.2095 6.95117 14.9661 8.70883 11.8375 11.8375C8.70883 14.9661 6.95117 19.2095 6.95117 23.6341H6.95117Z" fill="#F24E1E"/>
<path d="M6.95117 57.0001C6.95117 61.4247 8.70883 65.668 11.8375 68.7967C14.9661 71.9253 19.2095 73.683 23.6341 73.683H40.317V40.3171H23.6341C19.2095 40.3171 14.9661 42.0748 11.8375 45.2035C8.70883 48.3321 6.95117 52.5755 6.95117 57.0001H6.95117Z" fill="#A259FF"/>
</g>
</g>
<defs>
<filter id="filter0_d_392_1870" x="0" y="0" width="88.4959" height="121.862" filterUnits="userSpaceOnUse" color-interpolation-filters="sRGB">
<feFlood flood-opacity="0" result="BackgroundImageFix"/>
<feColorMatrix in="SourceAlpha" type="matrix" values="0 0 0 0 0 0 0 0 0 0 0 0 0 0 0 0 0 0 127 0" result="hardAlpha"/>
<feOffset dx="5.24138" dy="5.24138"/>
<feGaussianBlur stdDeviation="1.31034"/>
<feComposite in2="hardAlpha" operator="out"/>
<feColorMatrix type="matrix" values="0 0 0 0 0 0 0 0 0 0 0 0 0 0 0 0 0 0 0.1 0"/>
<feBlend mode="normal" in2="BackgroundImageFix" result="effect1_dropShadow_392_1870"/>
<feBlend mode="normal" in="SourceGraphic" in2="effect1_dropShadow_392_1870" result="shape"/>
</filter>
<clipPath id="clip0_392_1870">
<rect width="66.7317" height="100.098" fill="white" transform="translate(6.95117 6.95117)"/>
</clipPath>
</defs>
</svg>
