<svg width="47" height="47" viewBox="0 0 47 47" fill="none" xmlns="http://www.w3.org/2000/svg">
<path d="M41.1263 27.4165C40.6069 27.4165 40.1088 27.6228 39.7415 27.9901C39.3743 28.3573 39.168 28.8555 39.168 29.3748V37.2082C39.168 37.7276 38.9616 38.2257 38.5944 38.5929C38.2271 38.9602 37.729 39.1665 37.2096 39.1665H9.79297C9.27359 39.1665 8.77548 38.9602 8.40822 38.5929C8.04096 38.2257 7.83464 37.7276 7.83464 37.2082V29.3748C7.83464 28.8555 7.62831 28.3573 7.26105 27.9901C6.89379 27.6228 6.39568 27.4165 5.8763 27.4165C5.35692 27.4165 4.85881 27.6228 4.49155 27.9901C4.12429 28.3573 3.91797 28.8555 3.91797 29.3748V37.2082C3.91797 38.7663 4.53694 40.2606 5.63872 41.3624C6.74049 42.4642 8.23482 43.0832 9.79297 43.0832H37.2096C38.7678 43.0832 40.2621 42.4642 41.3639 41.3624C42.4657 40.2606 43.0846 38.7663 43.0846 37.2082V29.3748C43.0846 28.8555 42.8783 28.3573 42.5111 27.9901C42.1438 27.6228 41.6457 27.4165 41.1263 27.4165ZM22.1109 30.7653C22.2971 30.9435 22.5167 31.0833 22.7571 31.1765C22.9915 31.2801 23.245 31.3336 23.5013 31.3336C23.7576 31.3336 24.0111 31.2801 24.2455 31.1765C24.4859 31.0833 24.7055 30.9435 24.8917 30.7653L32.725 22.9319C33.0938 22.5632 33.301 22.063 33.301 21.5415C33.301 21.02 33.0938 20.5198 32.725 20.1511C32.3563 19.7823 31.8561 19.5752 31.3346 19.5752C30.8131 19.5752 30.313 19.7823 29.9442 20.1511L25.4596 24.6553V5.87484C25.4596 5.35545 25.2533 4.85735 24.8861 4.49009C24.5188 4.12283 24.0207 3.9165 23.5013 3.9165C22.9819 3.9165 22.4838 4.12283 22.1166 4.49009C21.7493 4.85735 21.543 5.35545 21.543 5.87484V24.6553L17.0584 20.1511C16.8758 19.9685 16.659 19.8237 16.4205 19.7248C16.1819 19.626 15.9262 19.5752 15.668 19.5752C15.4097 19.5752 15.154 19.626 14.9155 19.7248C14.6769 19.8237 14.4601 19.9685 14.2776 20.1511C14.095 20.3337 13.9501 20.5504 13.8513 20.789C13.7525 21.0276 13.7016 21.2833 13.7016 21.5415C13.7016 21.7997 13.7525 22.0554 13.8513 22.294C13.9501 22.5326 14.095 22.7493 14.2776 22.9319L22.1109 30.7653Z" fill="#0CCE68"/>
</svg>
