<svg width="36" height="36" viewBox="0 0 36 36" fill="none" xmlns="http://www.w3.org/2000/svg">
<path d="M18.0011 0.758545C8.47839 0.758545 0.759766 8.47717 0.759766 17.9999C0.759766 27.5227 8.47839 35.2413 18.0011 35.2413C27.5239 35.2413 35.2425 27.5227 35.2425 17.9999C35.2425 8.47717 27.5239 0.758545 18.0011 0.758545ZM26.9667 19.3792H19.3805V26.9654C19.3805 27.3313 19.2351 27.6821 18.9765 27.9408C18.7178 28.1994 18.367 28.3447 18.0011 28.3447C17.6353 28.3447 17.2845 28.1994 17.0258 27.9408C16.7672 27.6821 16.6218 27.3313 16.6218 26.9654V19.3792H9.03563C8.66981 19.3792 8.31898 19.2339 8.06031 18.9752C7.80164 18.7166 7.65632 18.3657 7.65632 17.9999C7.65632 17.6341 7.80164 17.2833 8.06031 17.0246C8.31898 16.7659 8.66981 16.6206 9.03563 16.6206H16.6218V9.03441C16.6218 8.66859 16.7672 8.31776 17.0258 8.05909C17.2845 7.80042 17.6353 7.6551 18.0011 7.6551C18.367 7.6551 18.7178 7.80042 18.9765 8.05909C19.2351 8.31776 19.3805 8.66859 19.3805 9.03441V16.6206H26.9667C27.3325 16.6206 27.6833 16.7659 27.942 17.0246C28.2007 17.2833 28.346 17.6341 28.346 17.9999C28.346 18.3657 28.2007 18.7166 27.942 18.9752C27.6833 19.2339 27.3325 19.3792 26.9667 19.3792Z" fill="#0CCE68"/>
</svg>
