<svg width="1083" height="692" viewBox="0 0 1083 692" fill="none" xmlns="http://www.w3.org/2000/svg">
<mask id="mask0_1415_2158" style="mask-type:luminance" maskUnits="userSpaceOnUse" x="0" y="0" width="692" height="692">
<path d="M0 0H692V692H0V0Z" fill="white"/>
</mask>
<g mask="url(#mask0_1415_2158)">
<mask id="mask1_1415_2158" style="mask-type:luminance" maskUnits="userSpaceOnUse" x="-231" y="-419" width="1540" height="1540">
<path d="M-230.523 371.055L558.702 -418.17L1308.46 331.613L519.231 1120.84L-230.523 371.055Z" fill="white"/>
</mask>
<g mask="url(#mask1_1415_2158)">
<mask id="mask2_1415_2158" style="mask-type:luminance" maskUnits="userSpaceOnUse" x="-231" y="-419" width="1540" height="1540">
<path d="M-230.535 371.054L558.69 -418.171L1308.44 331.611L519.219 1120.84L-230.535 371.054Z" fill="white"/>
</mask>
<g mask="url(#mask2_1415_2158)">
<path d="M558.556 449.824C558.556 478.832 547.249 506.125 526.729 526.645C506.208 547.166 478.944 558.472 449.908 558.472H143.524C138.612 558.472 135.27 556.176 133.351 554.258C131.433 552.31 129.137 548.997 129.137 544.056V237.673C129.137 207.735 141.315 180.587 160.993 160.91C180.671 141.232 207.847 129.054 237.785 129.054H373.406L501.18 1.28003H237.785C174.625 1.28003 115.272 25.8697 70.5981 70.5149C25.953 115.16 1.36328 174.542 1.36328 237.702V544.085C1.36328 582.045 16.1578 617.767 43.0146 644.594C69.8424 671.451 105.564 686.246 143.553 686.246H449.908C513.068 686.246 572.449 661.656 617.094 616.982C661.739 572.337 686.329 512.955 686.358 449.824L686.329 186.4L558.556 314.174V449.824Z" fill="#364187" fill-opacity="0.2"/>
</g>
</g>
</g>
<mask id="mask3_1415_2158" style="mask-type:luminance" maskUnits="userSpaceOnUse" x="390" y="0" width="693" height="692">
<path d="M390.642 0H1082.64V692H390.642V0Z" fill="white"/>
</mask>
<g mask="url(#mask3_1415_2158)">
<mask id="mask4_1415_2158" style="mask-type:luminance" maskUnits="userSpaceOnUse" x="-227" y="-434" width="1540" height="1540">
<path d="M-226.805 356.172L562.42 -433.053L1312.17 316.73L522.949 1105.95L-226.805 356.172Z" fill="white"/>
</mask>
<g mask="url(#mask4_1415_2158)">
<mask id="mask5_1415_2158" style="mask-type:luminance" maskUnits="userSpaceOnUse" x="-227" y="-434" width="1540" height="1540">
<path d="M-226.805 356.173L562.42 -433.052L1312.17 316.73L522.948 1105.96L-226.805 356.173Z" fill="white"/>
</mask>
<g mask="url(#mask5_1415_2158)">
<path d="M1039.62 44.1816C1012.77 17.3248 977.074 2.53027 939.085 2.53027H632.702C569.571 2.53027 510.189 27.12 465.544 71.7942C420.899 116.439 396.309 175.792 396.309 238.952V502.376L524.083 374.573V238.952C524.083 208.985 536.261 181.837 555.939 162.189C575.616 142.482 602.764 130.304 632.731 130.304H939.114C944.026 130.304 947.369 132.6 949.287 134.518C951.205 136.437 953.501 139.779 953.501 144.691V451.074C953.501 480.082 942.195 507.404 921.674 527.925C901.154 548.445 873.89 559.723 844.853 559.723H709.232L581.459 687.496H844.853C908.013 687.496 967.366 662.906 1012.04 618.261C1056.69 573.616 1081.27 514.235 1081.27 451.074V144.691C1081.27 106.731 1066.48 71.0094 1039.62 44.1816Z" fill="url(#paint0_linear_1415_2158)" fill-opacity="0.2"/>
</g>
</g>
</g>
<defs>
<linearGradient id="paint0_linear_1415_2158" x1="738.792" y1="2.53027" x2="738.792" y2="687.496" gradientUnits="userSpaceOnUse">
<stop stop-color="#364187"/>
<stop offset="1" stop-color="#31AC54"/>
</linearGradient>
</defs>
</svg>
